# xmcd
# 
# Track frame offsets:
#     150
#     20895
#     40726
#     55207
#     78024
#     95150
#     112414
#     129441
#     143923
#     161026
#     175828
#     193094
#     208037
#     221744
#     242064
# 
# Disc length: 3453
# 
# Revision: 1
# Processed by: cddbd v1.5.2PL0 Copyright (c) Steve Scherf et al.
# Submitted via: fre:ac v1.0.17
# 
DISCID=e10d7b0f
DTITLE=ШЕВЧЕНКО Александр - Больше Ничего
DYEAR=2009
DGENRE=Ballad
TTITLE0=Больше Ничего
TTITLE1=Я Тебя Не Буду Искать
TTITLE2=Никто Не Знает
TTITLE3=Сентябрь
TTITLE4=Подумать о Тебе
TTITLE5=Если Ты Не Забыла
TTITLE6=Вероника
TTITLE7=Мама
TTITLE8=Непонятная
TTITLE9=Два Билета
TTITLE10=Здесь (...Всё Помнит о Тебе)
TTITLE11=Всё Будет Хорошо
TTITLE12=Золушка
TTITLE13=Вместе и Навсегда
TTITLE14=Подумать о Тебе (акустика)
EXTD=
EXTT0=
EXTT1=
EXTT2=
EXTT3=
EXTT4=
EXTT5=
EXTT6=
EXTT7=
EXTT8=
EXTT9=
EXTT10=
EXTT11=
EXTT12=
EXTT13=
EXTT14=
PLAYORDER=
